<?xml version="1.0" encoding="iso-8859-1"?>
<!-- Uploaded to: SVG Repo, www.svgrepo.com, Generator: SVG Repo Mixer Tools -->
<svg fill="#000000" height="800px" width="800px" version="1.1" id="Layer_1" xmlns="http://www.w3.org/2000/svg" xmlns:xlink="http://www.w3.org/1999/xlink" 
	 viewBox="0 0 508 508" xml:space="preserve">
<g>
	<g>
		<path d="M253.9,79.516c-96.208,0-174.48,78.276-174.48,174.484c0,96.216,78.272,174.488,174.48,174.488
			S428.384,350.212,428.384,254C428.384,157.792,350.108,79.516,253.9,79.516z M253.9,420.488
			C162.104,420.488,87.42,345.8,87.42,254S162.104,87.516,253.9,87.516c91.8,0,166.484,74.684,166.484,166.484
			C420.384,345.804,345.7,420.488,253.9,420.488z"/>
	</g>
</g>
<g>
	<g>
		<path d="M51.752,242.064h-39.82C5.352,242.064,0,247.416,0,254c0,6.584,5.352,11.936,11.932,11.936h39.82
			c6.58,0,11.932-5.352,11.932-11.936S58.332,242.064,51.752,242.064z M51.752,257.936h-39.82C9.764,257.936,8,256.172,8,254
			c0-2.168,1.764-3.936,3.932-3.936h39.82c2.168,0,3.932,1.768,3.932,3.936C55.684,256.172,53.92,257.936,51.752,257.936z"/>
	</g>
</g>
<g>
	<g>
		<path d="M496.068,242.064h-39.82c-6.58,0-11.932,5.356-11.932,11.936s5.352,11.936,11.932,11.936h39.82
			c6.58,0,11.932-5.352,11.932-11.936S502.648,242.064,496.068,242.064z M496.068,257.936h-39.82c-2.168,0-3.932-1.764-3.932-3.936
			s1.764-3.936,3.932-3.936h39.82c2.168,0,3.932,1.768,3.932,3.936C500,256.172,498.236,257.936,496.068,257.936z"/>
	</g>
</g>
<g>
	<g>
		<path d="M254,444.316c-6.584,0-11.936,5.352-11.936,11.932v39.824c0,6.576,5.352,11.928,11.936,11.928
			c6.584,0,11.936-5.352,11.936-11.928v-39.824C265.936,449.668,260.584,444.316,254,444.316z M257.936,496.072
			c0,2.164-1.764,3.928-3.936,3.928s-3.936-1.76-3.936-3.928v-39.824c0-2.168,1.768-3.932,3.936-3.932
			c2.172,0,3.936,1.764,3.936,3.932V496.072z"/>
	</g>
</g>
<g>
	<g>
		<path d="M254,0c-6.584,0-11.936,5.352-11.936,11.932V51.76c0,6.576,5.352,11.928,11.936,11.928
			c6.584,0,11.936-5.352,11.936-11.928V11.932C265.936,5.352,260.584,0,254,0z M257.936,51.76c0,2.164-1.764,3.928-3.936,3.928
			s-3.936-1.76-3.936-3.928V11.932C250.064,9.764,251.832,8,254,8c2.172,0,3.936,1.764,3.936,3.932V51.76z"/>
	</g>
</g>
<g>
	<g>
		<path d="M119.428,388.568c-4.508-4.504-12.364-4.508-16.872,0l-28.16,28.164c-2.256,2.252-3.496,5.248-3.496,8.436
			c0,3.188,1.244,6.184,3.496,8.436c2.252,2.256,5.248,3.496,8.436,3.496c3.188,0,6.184-1.24,8.436-3.492l28.16-28.16
			C124.08,400.796,124.08,393.228,119.428,388.568z M113.772,399.784l-28.16,28.164c-1.484,1.488-4.076,1.488-5.56,0
			c-0.744-0.74-1.152-1.732-1.152-2.78c0-1.048,0.408-2.036,1.152-2.78l28.16-28.16c0.744-0.74,1.732-1.152,2.78-1.152
			s2.036,0.412,2.78,1.144C115.304,395.756,115.304,398.252,113.772,399.784z"/>
	</g>
</g>
<g>
	<g>
		<path d="M433.608,74.392c-4.508-4.508-12.36-4.508-16.876,0l-28.156,28.16c-2.256,2.252-3.496,5.248-3.496,8.436
			c0,3.188,1.244,6.184,3.492,8.436c2.252,2.256,5.248,3.5,8.436,3.5c3.188,0,6.184-1.24,8.436-3.496l28.16-28.16
			c2.256-2.252,3.5-5.244,3.5-8.436C437.104,79.64,435.86,76.644,433.608,74.392z M427.948,85.612l-28.164,28.16
			c-1.48,1.492-4.068,1.492-5.556,0c-0.744-0.74-1.152-1.728-1.152-2.78s0.408-2.036,1.152-2.78l28.156-28.16
			c0.744-0.744,1.732-1.152,2.784-1.152s2.04,0.404,2.78,1.148c0.74,0.744,1.152,1.732,1.152,2.784S428.692,84.868,427.948,85.612z"
			/>
	</g>
</g>
<g>
	<g>
		<path d="M433.604,416.728l-28.16-28.164c-4.508-4.504-12.368-4.504-16.872,0.004c-4.652,4.656-4.652,12.224,0,16.872l28.16,28.168
			c2.256,2.252,5.252,3.492,8.436,3.492c3.188,0,6.184-1.24,8.436-3.496c2.252-2.256,3.496-5.252,3.496-8.44
			C437.1,421.976,435.856,418.98,433.604,416.728z M427.952,427.952c-1.484,1.488-4.08,1.48-5.564,0l-28.156-28.164
			c-1.536-1.532-1.532-4.024,0-5.56c0.74-0.744,1.728-1.152,2.776-1.152c1.052,0,2.04,0.412,2.784,1.152l28.16,28.164
			c0.74,0.74,1.152,1.728,1.152,2.78S428.696,427.212,427.952,427.952z"/>
	</g>
</g>
<g>
	<g>
		<path d="M119.432,102.556l-28.16-28.164c-4.512-4.508-12.376-4.504-16.876,0c-2.256,2.256-3.496,5.252-3.496,8.44
			c0,3.188,1.244,6.188,3.496,8.436l28.16,28.16c2.252,2.252,5.252,3.496,8.436,3.496s6.184-1.24,8.44-3.496
			c2.252-2.256,3.496-5.252,3.496-8.436C122.928,107.804,121.684,104.808,119.432,102.556z M113.772,113.776
			c-1.484,1.492-4.068,1.492-5.56,0L80.048,85.612c-0.74-0.74-1.148-1.724-1.148-2.776s0.408-2.04,1.152-2.784
			c0.74-0.744,1.728-1.152,2.78-1.152c1.048,0,2.036,0.408,2.784,1.156l28.16,28.164c0.74,0.74,1.152,1.728,1.152,2.776
			C114.928,112.044,114.516,113.032,113.772,113.776z"/>
	</g>
</g>
<g>
	<g>
		<path d="M181.168,429.828c-1.456-0.604-2.988-0.908-4.556-0.908c-4.844,0-9.176,2.888-11.032,7.364l-15.24,36.792
			c-1.22,2.948-1.22,6.192,0,9.136c1.22,2.948,3.512,5.24,6.456,6.456c1.46,0.604,2.996,0.912,4.568,0.912
			c4.844,0,9.172-2.896,11.02-7.368l15.244-36.796C190.144,439.34,187.248,432.348,181.168,429.828z M180.24,442.348l-15.244,36.796
			c-0.808,1.952-3.14,2.96-5.14,2.124c-0.968-0.4-1.724-1.152-2.124-2.124c-0.404-0.968-0.404-2.036,0-3.008l15.24-36.788
			c0.612-1.476,2.04-2.428,3.64-2.428c0.512,0,1.02,0.1,1.5,0.292C180.112,438.044,181.068,440.348,180.24,442.348z"/>
	</g>
</g>
<g>
	<g>
		<path d="M357.664,25.792c-1.216-2.944-3.512-5.236-6.456-6.456c-1.46-0.604-2.996-0.912-4.564-0.912
			c-4.848,0-9.176,2.892-11.028,7.368l-15.248,36.796c-2.516,6.076,0.384,13.068,6.46,15.584c1.46,0.604,2.992,0.912,4.564,0.912
			c4.848,0,9.176-2.892,11.028-7.364l15.24-36.792C358.88,31.98,358.884,28.736,357.664,25.792z M350.264,31.864l-15.24,36.792
			c-0.808,1.948-3.152,2.948-5.136,2.128c-2.004-0.832-2.96-3.136-2.132-5.136l15.248-36.796c0.612-1.476,2.04-2.428,3.636-2.428
			c0.516,0,1.02,0.104,1.496,0.3c0.972,0.404,1.728,1.16,2.128,2.128C350.668,29.824,350.668,30.892,350.264,31.864z"/>
	</g>
</g>
<g>
	<g>
		<path d="M488.668,342.072c-1.22-2.948-3.516-5.236-6.456-6.456l-36.796-15.24c-1.46-0.604-2.992-0.912-4.564-0.912
			c-4.844,0-9.172,2.892-11.024,7.364c-1.22,2.944-1.224,6.192,0,9.136c1.216,2.944,3.512,5.236,6.456,6.456l36.788,15.24
			c1.46,0.604,2.996,0.912,4.564,0.912c4.84,0,9.168-2.892,11.032-7.368C489.888,348.26,489.888,345.02,488.668,342.072z
			 M481.284,348.132c-0.812,1.956-3.16,2.952-5.144,2.136l-36.788-15.24c-0.972-0.4-1.728-1.156-2.132-2.128
			c-0.404-0.968-0.404-2.036,0-3.008c0.612-1.476,2.036-2.428,3.632-2.428c0.512,0,1.016,0.1,1.504,0.3l36.8,15.24
			c0.968,0.404,1.72,1.156,2.124,2.128S481.684,347.172,481.284,348.132z"/>
	</g>
</g>
<g>
	<g>
		<path d="M71.72,165.584l-36.792-15.24c-1.46-0.604-2.992-0.912-4.564-0.912c-4.844,0-9.172,2.888-11.028,7.368
			c-2.516,6.076,0.38,13.068,6.456,15.588l36.796,15.24c1.456,0.604,2.988,0.912,4.56,0.912c4.848,0,9.176-2.892,11.028-7.364
			C80.692,175.096,77.796,168.104,71.72,165.584z M70.78,178.116c-0.804,1.948-3.156,2.944-5.132,2.124L28.852,165
			c-2-0.832-2.956-3.14-2.128-5.14c0.612-1.476,2.04-2.428,3.636-2.428c0.516,0,1.02,0.1,1.504,0.304l36.788,15.24
			C70.656,173.804,71.612,176.112,70.78,178.116z"/>
	</g>
</g>
<g>
	<g>
		<path d="M357.656,473.076l-15.24-36.792c-1.856-4.472-6.184-7.364-11.032-7.364c-1.568,0-3.1,0.304-4.56,0.908
			c-6.072,2.516-8.972,9.508-6.46,15.588l15.248,36.792c1.852,4.476,6.18,7.372,11.024,7.372c1.572,0,3.108-0.308,4.564-0.912
			c2.944-1.216,5.236-3.512,6.456-6.456C358.88,479.264,358.876,476.02,357.656,473.076z M350.268,479.148
			c-0.4,0.968-1.156,1.72-2.128,2.124c-1.988,0.832-4.324-0.172-5.136-2.128l-15.244-36.788c-0.828-2.004,0.128-4.308,2.128-5.136
			c0.484-0.2,0.988-0.3,1.5-0.3c1.6,0,3.028,0.952,3.64,2.428l15.24,36.792C350.672,477.108,350.672,478.176,350.268,479.148z"/>
	</g>
</g>
<g>
	<g>
		<path d="M187.632,62.584l-15.244-36.796c-1.856-4.476-6.184-7.368-11.028-7.368c-1.568,0-3.104,0.308-4.564,0.912
			c-6.076,2.52-8.972,9.512-6.456,15.592l15.24,36.792c1.856,4.476,6.184,7.368,11.028,7.368c1.568,0,3.104-0.304,4.568-0.912
			c2.944-1.22,5.236-3.516,6.456-6.46C188.852,68.768,188.852,65.528,187.632,62.584z M180.236,68.656
			c-0.4,0.968-1.156,1.724-2.124,2.128c-1.992,0.824-4.332-0.176-5.14-2.128l-15.24-36.792c-0.828-2.004,0.128-4.308,2.128-5.14
			c0.484-0.2,0.988-0.3,1.5-0.3c1.596,0,3.024,0.956,3.632,2.432l15.244,36.796C180.64,66.616,180.636,67.688,180.236,68.656z"/>
	</g>
</g>
<g>
	<g>
		<path d="M488.664,156.792c-1.86-4.468-6.192-7.36-11.028-7.36c-1.568,0-3.104,0.308-4.564,0.912l-36.788,15.24
			c-2.944,1.22-5.236,3.512-6.456,6.456c-1.224,2.948-1.22,6.192,0,9.136c1.852,4.472,6.18,7.364,11.024,7.364
			c1.568,0,3.104-0.308,4.56-0.912l36.8-15.24C488.288,169.868,491.18,162.876,488.664,156.792z M479.148,164.996l-36.796,15.24
			c-1.992,0.816-4.332-0.18-5.136-2.128c-0.4-0.968-0.4-2.036,0-3.008c0.404-0.968,1.16-1.724,2.132-2.128l36.788-15.24
			c0.484-0.2,0.992-0.3,1.504-0.3c1.596,0,3.024,0.956,3.636,2.424C482.104,161.86,481.148,164.164,479.148,164.996z"/>
	</g>
</g>
<g>
	<g>
		<path d="M78.176,326.832c-1.852-4.476-6.18-7.368-11.024-7.368c-1.572,0-3.108,0.308-4.564,0.912l-36.792,15.24
			c-2.948,1.22-5.24,3.512-6.46,6.46c-1.22,2.944-1.22,6.184,0,9.128c1.856,4.476,6.184,7.368,11.028,7.368
			c1.568,0,3.104-0.308,4.564-0.912l36.792-15.24c2.944-1.216,5.236-3.512,6.456-6.456C79.396,333.02,79.396,329.776,78.176,326.832
			z M70.784,332.904c-0.404,0.968-1.156,1.724-2.128,2.128l-36.792,15.24c-1.992,0.816-4.332-0.18-5.14-2.128
			c-0.404-0.972-0.404-2.036,0-3.008c0.4-0.972,1.156-1.724,2.128-2.128l36.796-15.24c0.484-0.204,0.988-0.304,1.5-0.304
			c1.6,0,3.02,0.952,3.636,2.432C71.188,330.864,71.188,331.932,70.784,332.904z"/>
	</g>
</g>
<g>
	<g>
		<path d="M378.468,162.332c-1.312-1.776-3.82-2.16-5.592-0.844c-1.776,1.312-2.156,3.816-0.844,5.592
			c18.66,25.312,28.524,55.368,28.524,86.92c0,80.868-65.788,146.66-146.656,146.66s-146.656-65.788-146.656-146.656
			S173.036,107.348,253.9,107.348c33.596,0,65.204,11.052,91.4,31.964c1.732,1.376,4.244,1.092,5.624-0.632
			c1.376-1.728,1.096-4.244-0.632-5.624c-27.632-22.052-60.964-33.712-96.392-33.712c-85.28,0-154.656,69.38-154.656,154.656
			s69.38,154.656,154.656,154.656S408.556,339.276,408.552,254C408.552,220.728,398.152,189.028,378.468,162.332z"/>
	</g>
</g>
</svg>